# xmcd CD database file generated by OrangeCD 5.2
#
# Track frame offsets:
#	150
#	30457
#	48305
#	70057
#	95557
#	121807
#	147232
#	171531
#	207305
#	230782
#
# Disc length: 3275 seconds
#
# Revision: 0
# Processed by: cddbd v1.5.1PL0 Copyright (c) Steve Scherf et al.
# Submitted via: OrangeCD 5.2
#
DISCID=8f0cc90a
DTITLE=Haynes, Warren - Stanhope House, Stanhope, NJ 6/29/1997
DYEAR=1997
DGENRE=Blues
TTITLE0=The Big Muddy
TTITLE1=Preachin' Blues
TTITLE2=End Of the Line
TTITLE3=Broken Promise Land
TTITLE4=Before You Came
TTITLE5=Going Down Slow
TTITLE6=To Lay Me Down
TTITLE7=The Same Thing
TTITLE8=I'll Be The One
TTITLE9=Yonder Wall
EXTD=
EXTT0=
EXTT1=
EXTT2=
EXTT3=
EXTT4=
EXTT5=
EXTT6=
EXTT7=
EXTT8=
EXTT9=
PLAYORDER=
